<svg width="24" height="24" viewBox="0 0 24 24" fill="none" xmlns="http://www.w3.org/2000/svg">
<path fill-rule="evenodd" clip-rule="evenodd" d="M1 6.5V5.65174C1 3.94722 2.38179 2.56543 4.08631 2.56543H6.84498L5.43449 1.15567L6.59016 0L9.9446 3.35316L6.5902 6.70756L5.43454 5.5519L6.78648 4.19996H4.08631C3.28451 4.19996 2.63452 4.84994 2.63452 5.65174V6.5H1Z" fill="white"/>
<path fill-rule="evenodd" clip-rule="evenodd" d="M2.64286 7.85716L1 9.50001V21.3572L2.64286 23L12.3571 23L14 21.3571V9.5L12.3571 7.85715L2.64286 7.85716ZM2.64286 21.3572V9.50001L12.3571 9.5V21.3571L2.64286 21.3572ZM11 11.5H4V13.1429H11V11.5ZM11 14.7857L4 14.7857V16.4286L11 16.4286V14.7857ZM4 18.0714L11 18.0714V19.7143L4 19.7143V18.0714Z" fill="white"/>
<path fill-rule="evenodd" clip-rule="evenodd" d="M11 1.64287L12.6429 8.82149e-06L22.3571 0L24 1.64286V13.5L22.3571 15.1429L15.65 15.1429V13.5L22.3571 13.5V1.64286L12.6429 1.64287V6.20715L11 6.20716V1.64287ZM21 11.8571L15.65 11.8572V10.2143L21 10.2143V11.8571ZM21 8.57144H15.4049L14 7.16656V6.92858H21V8.57144ZM14 5.28571V3.64286H21V5.28571H14ZM12.3571 9.50001V9.5L11 9.5V9.50001L12.3571 9.50001Z" fill="white"/>
</svg>
